<svg id="visual" viewBox="0 0 960 540" width="960" height="540" xmlns="http://www.w3.org/2000/svg" xmlns:xlink="http://www.w3.org/1999/xlink" version="1.1"><rect x="0" y="0" width="960" height="540" fill="#001220"></rect><path d="M0 197L40 193.3C80 189.7 160 182.3 240 190.7C320 199 400 223 480 234C560 245 640 243 720 237.8C800 232.7 880 224.3 920 220.2L960 216L960 541L920 541C880 541 800 541 720 541C640 541 560 541 480 541C400 541 320 541 240 541C160 541 80 541 40 541L0 541Z" fill="#6eacda"></path><path d="M0 308L40 306.7C80 305.3 160 302.7 240 298.8C320 295 400 290 480 297.5C560 305 640 325 720 337.3C800 349.7 880 354.3 920 356.7L960 359L960 541L920 541C880 541 800 541 720 541C640 541 560 541 480 541C400 541 320 541 240 541C160 541 80 541 40 541L0 541Z" fill="#386ea4"></path><path d="M0 396L40 405C80 414 160 432 240 432.3C320 432.7 400 415.3 480 412.7C560 410 640 422 720 431.5C800 441 880 448 920 451.5L960 455L960 541L920 541C880 541 800 541 720 541C640 541 560 541 480 541C400 541 320 541 240 541C160 541 80 541 40 541L0 541Z" fill="#03346e"></path></svg>